<svg width="524" height="523" viewBox="0 0 524 523" fill="none" xmlns="http://www.w3.org/2000/svg">
	<path fill-rule="evenodd" clip-rule="evenodd"
		d="M262.013 490.643C388.636 490.643 491.284 387.995 491.284 261.372C491.284 134.75 388.636 32.1016 262.013 32.1016C135.391 32.1016 32.7427 134.75 32.7427 261.372C32.7427 387.995 135.391 490.643 262.013 490.643ZM262.013 522.643C406.309 522.643 523.284 405.668 523.284 261.372C523.284 117.076 406.309 0.101624 262.013 0.101624C117.717 0.101624 0.742676 117.076 0.742676 261.372C0.742676 405.668 117.717 522.643 262.013 522.643Z"
		fill="#EFFEFF" />
	<path fill-rule="evenodd" clip-rule="evenodd"
		d="M256.362 218.409V55.7324L62.0132 255.732H118.058L144.725 228.844H218.952L218.952 255.732H219.039L256.362 218.409ZM304.987 255.732L267.643 218.388V55.7781L354.818 146.147L328.085 171.937L305.397 148.517V221.475H376.127L351.935 196.528L379.412 171.481L462.013 255.732H304.987ZM267.664 304.335L304.987 267.012H305.075L305.075 293.9H379.301L405.968 267.012H462.013L267.664 467.012V304.335ZM219.039 267.012L256.384 304.357V466.966L169.208 376.597L195.941 350.807L218.629 374.228V301.269H147.899L172.091 326.217L144.614 351.264L62.0132 267.012H219.039ZM220.791 147.051L220.259 197.48H172.039L220.791 147.051ZM303.235 375.694L303.768 325.264H351.988L303.235 375.694Z"
		fill="#EFFEFF" />
</svg>